# xmcd CD database file
#
# Track frame offsets:
#	150
#	10948
#	19889
#	33432
#	47151
#	60653
#	76302
#	87989
#	100692
#	114080
#
# Disc length: 1762 seconds
#
# Revision: 1
# Processed by: cddbd v1.5.2PL0 Copyright (c) Steve Scherf et al.
# Submitted via: CDex 1.70beta2
#
DISCID=6e06e00a
DTITLE=Various Artist - Country Gospel - Disc 1
DYEAR=2004
DGENRE=Gospel
TTITLE0=Wings Of A Dove - Ferlin Husky
TTITLE1=A Wonderful Time Up There - Jack Greene
TTITLE2=Uncloudy Day - Jeanne Pruett
TTITLE3=In The Garden - Gospel Gold Singers
TTITLE4=Life's Railway To Heaven - Patsy Cline
TTITLE5=What A Friend We Have In Jesus - Holly Dunn
TTITLE6=What Would You Do If Jesus Came To Your House - Porter Wagner
TTITLE7=In The Shelter Of His Arms - Oak Ridge Boys
TTITLE8=Will The Circle Be Unbroken - Gospel Gold Singer
TTITLE9=Wings Of An Angel - Holly Dunn
EXTD=YEAR: 2004
EXTT0=
EXTT1=
EXTT2=
EXTT3=
EXTT4=
EXTT5=
EXTT6=
EXTT7=
EXTT8=
EXTT9=
PLAYORDER=
